<svg width="34" height="27" viewBox="0 0 34 27" fill="none" xmlns="http://www.w3.org/2000/svg">
<path d="M17.6274 14.1167V21.774C17.6274 21.919 17.561 22.0581 17.4429 22.1607C17.3248 22.2633 17.1647 22.3209 16.9976 22.3209C16.8306 22.3209 16.6704 22.2633 16.5523 22.1607C16.4342 22.0581 16.3679 21.919 16.3679 21.774V14.1167C16.3679 13.9717 16.4342 13.8326 16.5523 13.73C16.6704 13.6274 16.8306 13.5698 16.9976 13.5698C17.1647 13.5698 17.3248 13.6274 17.4429 13.73C17.561 13.8326 17.6274 13.9717 17.6274 14.1167ZM33.9833 11.0525L31.7966 25.273C31.736 25.6665 31.5133 26.0275 31.1697 26.2893C30.8261 26.551 30.3848 26.6957 29.9278 26.6965H4.06747C3.61043 26.6957 3.16922 26.551 2.82561 26.2893C2.48199 26.0275 2.25927 25.6665 2.19871 25.273L0.0166584 11.0525C-0.0189568 10.8211 0.00268656 10.5858 0.0801427 10.3622C0.157599 10.1387 0.289085 9.93208 0.465818 9.7562C0.64255 9.58031 0.860462 9.4392 1.105 9.3423C1.34953 9.24539 1.61506 9.19492 1.88384 9.19426H7.89473L16.5253 0.630487C16.5844 0.572289 16.6571 0.525678 16.7385 0.493751C16.82 0.461824 16.9083 0.445313 16.9976 0.445312C17.087 0.445313 17.1753 0.461824 17.2567 0.493751C17.3382 0.525678 17.4109 0.572289 17.4699 0.630487L26.1006 9.19426H32.1114C32.3806 9.19434 32.6467 9.24438 32.8918 9.34103C33.1369 9.43768 33.3554 9.5787 33.5326 9.75466C33.7099 9.93061 33.8418 10.1374 33.9195 10.3613C33.9972 10.5851 34.019 10.8208 33.9833 11.0525ZM9.56826 9.19426H24.427L16.9976 1.82009L9.56826 9.19426ZM32.5837 10.4741C32.5251 10.4153 32.4526 10.3683 32.371 10.3362C32.2895 10.3041 32.2009 10.2877 32.1114 10.2881H1.88384C1.79378 10.2875 1.7046 10.3036 1.62233 10.3354C1.54005 10.3672 1.46659 10.414 1.4069 10.4726C1.34721 10.5312 1.30269 10.6002 1.27633 10.675C1.24997 10.7498 1.24239 10.8286 1.2541 10.9062L3.43616 25.1267C3.45649 25.2589 3.53172 25.38 3.64768 25.4674C3.76365 25.5548 3.91238 25.6024 4.0659 25.6012H29.9278C30.0813 25.6024 30.2301 25.5548 30.346 25.4674C30.462 25.38 30.5372 25.2589 30.5575 25.1267L32.7412 10.9076C32.7529 10.8297 32.7449 10.7506 32.7177 10.6757C32.6905 10.6008 32.6448 10.532 32.5837 10.4741ZM25.3732 13.5698C25.2909 13.5626 25.2078 13.5696 25.1286 13.5903C25.0494 13.611 24.9757 13.6451 24.9117 13.6905C24.8477 13.736 24.7946 13.7919 24.7554 13.8552C24.7163 13.9185 24.6919 13.9879 24.6836 14.0593L23.802 21.7165C23.7928 21.7884 23.8002 21.8612 23.8236 21.9306C23.8471 22 23.8861 22.0647 23.9386 22.1209C23.991 22.1771 24.0557 22.2237 24.129 22.2581C24.2023 22.2924 24.2827 22.3137 24.3656 22.3209H24.4302C24.5868 22.3216 24.7381 22.2715 24.8546 22.1805C24.971 22.0895 25.0442 21.964 25.0599 21.8287L25.9415 14.1714C25.9502 14.0994 25.9424 14.0267 25.9184 13.9573C25.8945 13.888 25.8549 13.8235 25.8021 13.7675C25.7492 13.7115 25.6841 13.6652 25.6105 13.6313C25.5368 13.5974 25.4562 13.5765 25.3732 13.5698ZM8.62208 13.5698C8.53979 13.577 8.45994 13.5982 8.38708 13.6322C8.31423 13.6661 8.24979 13.7123 8.19745 13.7679C8.14511 13.8235 8.1059 13.8875 8.08205 13.9563C8.0582 14.0251 8.05019 14.0972 8.05846 14.1687L8.9401 21.8259C8.95576 21.9613 9.02896 22.0868 9.14541 22.1778C9.26185 22.2688 9.41318 22.3188 9.56984 22.3182H9.63439C9.71667 22.311 9.79652 22.2898 9.86938 22.2558C9.94224 22.2218 10.0067 22.1757 10.059 22.1201C10.1114 22.0645 10.1506 22.0005 10.1744 21.9317C10.1983 21.8629 10.2063 21.7907 10.198 21.7193L9.31637 14.0621C9.30851 13.99 9.28424 13.9199 9.24498 13.8561C9.20572 13.7922 9.15225 13.7357 9.08766 13.6899C9.02308 13.6441 8.94866 13.6099 8.86874 13.5893C8.78882 13.5687 8.70497 13.5621 8.62208 13.5698Z" fill="black"/>
</svg>
