<svg width="30" height="31" viewBox="0 0 30 31" fill="none" xmlns="http://www.w3.org/2000/svg">
<path d="M15 8.90044C13.6621 8.90044 12.3542 9.28618 11.2417 10.0089C10.1293 10.7316 9.26223 11.7588 8.75023 12.9606C8.23822 14.1624 8.10426 15.4848 8.36528 16.7606C8.62629 18.0365 9.27057 19.2084 10.2166 20.1282C11.1627 21.048 12.368 21.6744 13.6803 21.9282C14.9925 22.182 16.3527 22.0518 17.5887 21.554C18.8248 21.0561 19.8813 20.2131 20.6246 19.1315C21.368 18.05 21.7647 16.7783 21.7647 15.4775C21.7624 13.7339 21.0489 12.0623 19.7808 10.8293C18.5127 9.59638 16.7934 8.90271 15 8.90044ZM15 20.3388C14.0111 20.3388 13.0444 20.0537 12.2221 19.5196C11.3999 18.9854 10.759 18.2262 10.3806 17.3379C10.0022 16.4496 9.90315 15.4721 10.0961 14.5291C10.289 13.5861 10.7652 12.7199 11.4645 12.04C12.1637 11.3602 13.0546 10.8972 14.0245 10.7096C14.9945 10.522 15.9998 10.6183 16.9134 10.9862C17.827 11.3542 18.6079 11.9773 19.1573 12.7767C19.7068 13.5762 20 14.516 20 15.4775C20 16.7668 19.4732 18.0033 18.5355 18.915C17.5979 19.8267 16.3261 20.3388 15 20.3388ZM22.0588 0.893555H7.94118C5.83576 0.895825 3.81725 1.71001 2.3285 3.15747C0.839743 4.60493 0.00233546 6.56746 0 8.61448V22.3406C0.00233546 24.3876 0.839743 26.3501 2.3285 27.7976C3.81725 29.245 5.83576 30.0592 7.94118 30.0615H22.0588C24.1642 30.0592 26.1828 29.245 27.6715 27.7976C29.1603 26.3501 29.9977 24.3876 30 22.3406V8.61448C29.9977 6.56746 29.1603 4.60493 27.6715 3.15747C26.1828 1.71001 24.1642 0.895825 22.0588 0.893555ZM28.2353 22.3406C28.2353 23.9332 27.5846 25.4607 26.4262 26.5869C25.2679 27.713 23.6969 28.3457 22.0588 28.3457H7.94118C6.30307 28.3457 4.73206 27.713 3.57375 26.5869C2.41544 25.4607 1.76471 23.9332 1.76471 22.3406V8.61448C1.76471 7.02181 2.41544 5.49437 3.57375 4.36819C4.73206 3.242 6.30307 2.60932 7.94118 2.60932H22.0588C23.6969 2.60932 25.2679 3.242 26.4262 4.36819C27.5846 5.49437 28.2353 7.02181 28.2353 8.61448V22.3406ZM24.1176 8.04256C24.1176 8.32535 24.0314 8.60178 23.8698 8.83691C23.7082 9.07204 23.4785 9.2553 23.2098 9.36352C22.9411 9.47174 22.6454 9.50005 22.3602 9.44488C22.0749 9.38972 21.8129 9.25354 21.6072 9.05358C21.4015 8.85362 21.2615 8.59885 21.2047 8.3215C21.148 8.04414 21.1771 7.75666 21.2884 7.4954C21.3997 7.23413 21.5882 7.01083 21.83 6.85372C22.0719 6.69661 22.3562 6.61276 22.6471 6.61276C23.0371 6.61276 23.4111 6.7634 23.6869 7.03154C23.9627 7.29968 24.1176 7.66335 24.1176 8.04256Z" fill="#E6E6E6"/>
</svg>
