<svg width="34" height="31" viewBox="0 0 34 31" fill="none" xmlns="http://www.w3.org/2000/svg">
<path d="M33.6247 1.14691C33.4756 1.02291 33.2942 0.940468 33.1 0.908476C32.9058 0.876484 32.7062 0.896156 32.5228 0.96537L1.20142 12.7666C0.820449 12.9101 0.498128 13.1688 0.282859 13.5037C0.0675896 13.8386 -0.0290076 14.2317 0.00757431 14.624C0.0441562 15.0163 0.211942 15.3866 0.485735 15.6792C0.759528 15.9719 1.12455 16.1711 1.52597 16.247L9.89029 17.8287V26.7849C9.89046 27.2001 10.0195 27.6058 10.2609 27.9499C10.5022 28.294 10.8449 28.5608 11.2448 28.7161C11.6448 28.8714 12.0838 28.9081 12.5056 28.8214C12.9274 28.7347 13.3126 28.5287 13.6119 28.2298L17.7291 24.1185L24.1554 29.5422C24.5477 29.8764 25.0534 30.0611 25.5772 30.0615C25.806 30.061 26.0333 30.0263 26.2511 29.9588C26.6081 29.85 26.9292 29.6531 27.1825 29.3876C27.4358 29.122 27.6124 28.7972 27.6946 28.4455L33.9725 2.16915C34.0166 1.98442 34.0075 1.7916 33.9463 1.61147C33.885 1.43133 33.7738 1.27071 33.6247 1.14691ZM1.86135 14.4897C1.85543 14.4743 1.85543 14.4574 1.86135 14.4421C1.86833 14.4369 1.87617 14.4329 1.88453 14.4302L26.5679 5.12727L10.6028 16.1384L1.88453 14.4956L1.86135 14.4897ZM12.2766 26.9888C12.234 27.0313 12.1792 27.0607 12.1192 27.0732C12.0592 27.0856 11.9967 27.0806 11.9396 27.0588C11.8826 27.0369 11.8336 26.9992 11.7989 26.9504C11.7643 26.9016 11.7455 26.844 11.7449 26.7849V19.0638L16.3335 22.9325L12.2766 26.9888ZM25.8879 28.0423C25.8765 28.0926 25.8513 28.139 25.8148 28.1767C25.7784 28.2144 25.7321 28.242 25.6808 28.2566C25.6285 28.2742 25.5722 28.2781 25.5178 28.2676C25.4634 28.2571 25.4129 28.2327 25.3717 28.197L12.3075 17.1636L31.682 3.79552L25.8879 28.0423Z" fill="#E6E6E6"/>
</svg>
